<?xml version="1.0" encoding="UTF-8" standalone="no"?>
<!-- Created with Inkscape (http://www.inkscape.org/) -->

<svg
   version="1.1"
   id="svg1"
   width="95.519997"
   height="120"
   viewBox="0 0 95.519997 120"
   sodipodi:docname="CCU2.svg"
   inkscape:version="1.4 (86a8ad7, 2024-10-11)"
   xmlns:inkscape="http://www.inkscape.org/namespaces/inkscape"
   xmlns:sodipodi="http://sodipodi.sourceforge.net/DTD/sodipodi-0.dtd"
   xmlns="http://www.w3.org/2000/svg"
   xmlns:svg="http://www.w3.org/2000/svg">
  <defs
     id="defs1" />
  <sodipodi:namedview
     id="namedview1"
     pagecolor="#ffffff"
     bordercolor="#000000"
     borderopacity="0.25"
     inkscape:showpageshadow="2"
     inkscape:pageopacity="0.0"
     inkscape:pagecheckerboard="0"
     inkscape:deskcolor="#d1d1d1"
     showgrid="false"
     inkscape:zoom="4.6083333"
     inkscape:cx="47.631103"
     inkscape:cy="60"
     inkscape:window-width="1366"
     inkscape:window-height="705"
     inkscape:window-x="-8"
     inkscape:window-y="-8"
     inkscape:window-maximized="1"
     inkscape:current-layer="g1" />
  <g
     inkscape:groupmode="layer"
     inkscape:label="Image"
     id="g1">
    <path
       style="fill:#000000"
       d="m 5.1199998,113.92 c -0.176,-0.176 -0.32,-23.023067 -0.32,-50.771261 l 0,-50.451261 L 8.5397914,8.9796206 12.279583,5.261763 46.09979,5.3908815 79.919997,5.52 l 0.149918,20.88 0.149917,20.88 2.250083,1.476537 c 2.956074,1.939819 6.435072,6.297354 7.751681,9.709179 2.025061,5.247692 1.791171,11.875521 -0.587712,16.654284 -0.525681,1.056 -2.872356,3.908306 -5.214835,6.338457 l -4.259052,4.418457 0,10.472804 v 10.472802 l -3.730619,3.70874 -3.730619,3.70874 h -33.62938 c -18.496158,0 -33.7733792,-0.144 -33.9493792,-0.32 z M 71.999997,103.00378 v -9.783114 l -2.999999,0.952572 C 62.982921,96.083805 55.639502,94.652579 49.94299,90.459046 41.503676,84.246376 38.999886,71.799952 44.305157,62.433181 c 1.679609,-2.96545 6.205012,-7.007639 9.727382,-8.688711 2.765179,-1.319699 3.990384,-1.605471 7.719468,-1.800527 3.939936,-0.206084 6.884753,0.148171 9.466189,1.138761 0.714682,0.274249 0.781801,-1.41458 0.781801,-19.671349 V 13.44 H 39.119999 6.2399998 l -6.45e-5,49.8 -6.44e-5,49.8 32.8800631,-0.12655 32.880063,-0.12655 z M 14.302554,80.285222 c -1.72262,-0.393913 -1.574884,-3.194445 0.198204,-3.757201 1.189371,-0.377492 3.04527,1.286376 2.633049,2.360607 -0.358677,0.934696 -1.781637,1.63661 -2.831253,1.396594 z m 1.537445,-2.07355 c 0,-0.24842 -0.324,-0.451672 -0.72,-0.451672 -0.742276,0 -0.953617,0.566382 -0.413049,1.10695 0.383487,0.383487 1.133049,-0.05001 1.133049,-0.655278 z M 13.430296,74.381869 C 12.614791,72.858084 13.280253,71.52 14.853572,71.52 c 1.87342,0 2.727277,1.117907 2.027289,2.654215 -0.680708,1.49399 -2.697193,1.615341 -3.450565,0.207654 z M 15.747999,73.404 c -0.0946,-0.2838 -0.3772,-0.516 -0.628,-0.516 -0.2508,0 -0.5334,0.2322 -0.628,0.516 -0.0946,0.2838 0.188,0.516 0.628,0.516 0.44,0 0.7226,-0.2322 0.628,-0.516 z M 13.707272,69.630135 C 12.288359,68.062254 13.294301,66.24 15.578734,66.24 c 1.099516,0 2.00742,2.172742 1.276112,3.053914 -0.901036,1.085682 -2.331079,1.238438 -3.147574,0.336221 z m 2.132727,-1.498463 c 0,-0.24842 -0.324,-0.451672 -0.72,-0.451672 -0.742276,0 -0.953617,0.566382 -0.413049,1.10695 0.383487,0.383487 1.133049,-0.05001 1.133049,-0.655278 z m 63.359998,28.963854 v -9.254525 l -2.88,2.236522 -2.88,2.236522 v 9.867955 9.86795 l 2.88,-2.84995 2.88,-2.84995 z M 66.739364,93.116327 c 6.217101,-1.179049 11.613903,-5.268712 14.423452,-10.930003 1.426647,-2.87472 1.621753,-3.752757 1.79029,-8.056873 0.177989,-4.545492 0.100155,-5.044327 -1.318973,-8.453225 -1.916318,-4.603202 -5.491717,-8.35808 -10.046481,-10.550794 -2.906036,-1.398999 -3.611718,-1.537703 -7.987654,-1.570003 -5.733151,-0.04232 -8.425106,0.791613 -12.574895,3.895527 -5.470918,4.092076 -8.037199,9.709033 -7.748955,16.960551 0.143979,3.622169 0.383818,4.566919 1.977633,7.790118 4.071047,8.232946 12.648956,12.590534 21.485583,10.914702 z M 85.806557,78.547471 C 92.018292,71.808534 91.805422,59.861573 85.347552,52.786611 83.949036,51.254458 80.398997,48.48 79.837057,48.48 c -0.233636,0 -1.787343,1.37477 -3.452682,3.055045 l -3.027889,3.055045 1.700863,1.051191 c 2.644634,1.634474 6.068948,5.728242 7.660993,9.158719 1.7827,3.841292 2.32629,10.400596 1.143651,13.8 -0.39034,1.122 -0.546483,2.04 -0.346985,2.04 0.199498,0 1.230695,-0.941638 2.291549,-2.092529 z m -6.617725,-51.172445 0.01116,-19.9049746 -2.88,2.8499486 -2.88,2.849949 V 32.77863 52.387312 L 76.308832,49.833656 79.177667,47.28 Z M 75.359997,9.36 77.967204,6.72 45.327205,6.72 12.687206,6.72 10.08,9.36 7.4727935,12 40.112792,12 72.752791,12 Z"
       id="path1" />
  </g>
</svg>
