<?xml version="1.0" encoding="UTF-8" standalone="no"?>
<!-- Created with Inkscape (http://www.inkscape.org/) -->

<svg
   version="1.1"
   id="svg1"
   width="80"
   height="79.68"
   viewBox="0 0 80 79.68"
   sodipodi:docname="thermosat_hmip-etrv.svg"
   inkscape:version="1.4 (86a8ad7, 2024-10-11)"
   xmlns:inkscape="http://www.inkscape.org/namespaces/inkscape"
   xmlns:sodipodi="http://sodipodi.sourceforge.net/DTD/sodipodi-0.dtd"
   xmlns="http://www.w3.org/2000/svg"
   xmlns:svg="http://www.w3.org/2000/svg">
  <defs
     id="defs1" />
  <sodipodi:namedview
     id="namedview1"
     pagecolor="#ffffff"
     bordercolor="#000000"
     borderopacity="0.25"
     inkscape:showpageshadow="2"
     inkscape:pageopacity="0.0"
     inkscape:pagecheckerboard="0"
     inkscape:deskcolor="#d1d1d1"
     inkscape:zoom="6.940261"
     inkscape:cx="40.05613"
     inkscape:cy="39.84"
     inkscape:window-width="1366"
     inkscape:window-height="705"
     inkscape:window-x="-8"
     inkscape:window-y="-8"
     inkscape:window-maximized="1"
     inkscape:current-layer="g1" />
  <g
     inkscape:groupmode="layer"
     inkscape:label="Image"
     id="g1">
    <path
       style="fill:#000000"
       d="M 48.993474,78.392392 C 48.571884,78.212987 47.544592,77.565306 46.710601,76.953101 45.876611,76.340896 45.033547,75.84 44.837127,75.84 44.640707,75.84 44.48,75.70052 44.48,75.530043 c 0,-0.170476 -0.194174,-0.235445 -0.431498,-0.144375 -0.73365,0.281528 -3.366341,-2.08176 -14.053191,-12.615125 C 24.32189,57.178604 17.344641,50.326671 14.490313,47.544025 8.7625713,41.960128 7.6734371,40.402662 8.2476424,38.616981 L 8.5746638,37.6 l 0.032668,1.210278 c 0.066722,2.471904 0.7040477,3.238859 11.4777081,13.812231 13.553581,13.301613 18.314406,17.91853 18.579915,18.018292 0.118275,0.04444 0.167843,-0.911886 0.110151,-2.12517 L 38.670213,66.30966 31.415106,59.169345 C 12.355637,40.411439 8.0016735,36.01455 8.0224913,35.546104 8.0388394,35.178236 8.1168616,35.214808 8.3081439,35.68 8.5172434,36.188523 8.6060223,36.221392 8.7402997,35.84 9.195799,34.546231 9.2678813,34.490811 9.1150042,35.551909 L 8.9490436,36.703818 23.683378,51.196386 C 31.787262,59.167298 38.475455,65.631212 38.546029,65.560638 38.754514,65.352153 36.83987,61.203949 34.945569,57.76 31.758257,51.965285 26.963977,45.276895 21.641641,39.2 17.89996,34.927852 11.181122,27.84 10.873075,27.84 c -0.147709,0 -0.33115,0.252 -0.407646,0.56 -0.07649,0.308 -0.09214,0.174125 -0.03476,-0.2975 0.05738,-0.471625 -0.04816,-0.90833 -0.234543,-0.970456 -0.186378,-0.06213 -0.2887528,-0.407187 -0.2274995,-0.766802 0.087565,-0.514086 1.3896055,0.719348 6.0914255,5.770456 8.180642,8.788364 12.838462,14.562334 16.806437,20.833751 1.971737,3.116347 5.648199,10.114262 6.149298,11.704805 0.316211,1.003687 2.722494,3.458008 3.056844,3.11787 C 42.262761,67.598707 38.233126,58.835277 36.797477,56.32 31.811471,47.584449 25.384089,39.419988 15.060853,28.708786 11.80027,25.325665 11.712167,25.26151 11.316328,25.982074 10.945441,26.657214 10.924312,26.611092 11.068,25.44 11.194057,24.412605 11.15121,24.259025 10.850888,24.661777 10.527585,25.095349 10.275773,24.94773 8.9983627,23.575779 8.1852632,22.702502 7.5595678,21.853999 7.6079285,21.690216 7.6562892,21.526433 7.5703248,21.470012 7.4168965,21.564836 7.0817791,21.77195 5.7384826,20.339441 5.1390733,19.135735 3.7655554,16.377501 7.1772911,9.9555041 12.48,5.3177224 16.447327,1.8478737 20.395377,0.24628133 22.877778,1.0996902 c 1.239909,0.4262603 6.244658,5.1789479 6.237322,5.9231827 -0.0029,0.2952706 -0.100362,0.3645476 -0.24,0.1706138 C 28.517297,6.6965598 26.939924,6.0770914 26.480903,6.2532341 26.257229,6.3390659 24.926901,5.2552013 23.524619,3.844646 21.239515,1.5460608 20.16,0.80278365 20.16,1.5280088 c 0,0.3373486 4.519538,4.7483303 5.12,4.9970205 0.264,0.1093396 0.09162,0.1251069 -0.383066,0.035038 -0.537329,-0.1019545 -0.960037,4.656e-4 -1.12,0.2713707 C 23.63562,7.0707608 23.16,7.4395356 22.72,7.6509382 21.948461,8.0216321 21.942769,8.0166538 22.56,7.5110037 23.183463,7.0002485 23.134696,6.9264702 20.672664,4.6556876 18.913204,3.0329027 17.965259,2.371763 17.552664,2.4796591 17.226699,2.5649008 16.96,2.7226634 16.96,2.8302425 c 0,0.1075791 1.097464,1.2995374 2.43881,2.6487962 2.19996,2.2129395 2.372329,2.4742979 1.76,2.6686436 -0.373346,0.1184952 -0.683335,0.385742 -0.688866,0.5938818 -0.0055,0.2081398 -0.401531,0.6565475 -0.88,0.9964615 L 18.72,10.356051 19.339817,9.6467316 c 0.613089,-0.7016206 0.613089,-0.7155473 0,-1.283059 C 18.998918,8.0481159 17.839754,6.9701205 16.763897,5.9681271 14.835701,4.1723111 14.797738,4.1544647 14.10283,4.7171666 l -0.704964,0.5708456 2.581067,2.5117549 C 17.39852,9.1812323 18.56,10.36743 18.56,10.435761 c 0,0.06833 -0.210934,0.124239 -0.468741,0.124239 -0.257808,0 -0.635803,0.324 -0.839988,0.72 -0.559652,1.085394 -1.644355,2.194329 -2.451271,2.506031 -0.396,0.152971 -0.72,0.511475 -0.72,0.796675 0,0.78449 -1.023996,2.354478 -1.669237,2.559269 C 12.04225,17.258936 11.84,17.640372 11.84,18.218409 c 0,0.492405 -0.280746,1.252192 -0.62388,1.688417 -0.343134,0.436224 -0.6048,1.067644 -0.581479,1.403154 0.02332,0.335511 -0.05868,1.00602 -0.182216,1.49002 -0.12354,0.484 -0.09328,0.88 0.06724,0.88 C 10.871689,23.68 11.2,22.895251 11.2,22.053828 11.2,21.716223 11.339481,21.44 11.509957,21.44 c 0.170476,0 0.230426,-0.207254 0.133222,-0.460564 -0.0972,-0.25331 -0.01871,-0.72131 0.174439,-1.04 0.290672,-0.479607 0.320123,-0.414042 0.170942,0.380564 l -0.180232,0.96 0.495836,-1.076739 c 0.588109,-1.277116 0.608077,-1.4304 0.149405,-1.146926 -0.190537,0.117759 -0.112404,-0.238451 0.173628,-0.791577 0.286033,-0.553126 0.641668,-0.930525 0.790302,-0.838665 0.148633,0.09186 0.2505,-0.08343 0.226371,-0.389537 -0.02506,-0.317869 0.144512,-0.516635 0.395388,-0.46347 0.274595,0.05819 0.370417,-0.08631 0.255616,-0.385478 -0.117723,-0.306781 0.270763,-0.838461 1.082264,-1.481181 0.696248,-0.551439 1.199185,-1.110573 1.117637,-1.24252 -0.378705,-0.612758 5.042268,-4.8893775 5.819591,-4.5910905 0.336626,0.1291754 0.432551,0.069621 0.281508,-0.1747707 -0.154402,-0.2498284 -0.05005,-0.3020028 0.32,-0.16 0.370054,0.1420029 0.474403,0.089828 0.32,-0.16 -0.154936,-0.2506915 -0.04918,-0.301667 0.326652,-0.1574475 0.495202,0.1900269 0.479578,0.2472637 -0.14338,0.5252352 -0.858899,0.3832516 -0.87201,0.5985343 -0.0801,1.3152035 0.59219,0.535924 0.675962,0.526288 1.930976,-0.2221121 C 26.630774,9.0274703 26.590218,8.5929399 25.12,8.2315552 24.768,8.1450323 25.2,8.0597417 26.08,8.0420206 27.22098,8.0190438 27.542294,8.0987926 27.2,8.32 c -0.264,0.1706099 -0.327523,0.3124049 -0.141161,0.3150999 0.186361,0.0027 0.618361,-0.2008154 0.96,-0.4522454 0.588336,-0.4329881 0.590783,-0.4689191 0.0463,-0.6799412 C 27.480694,7.2764075 25.322668,7.4458165 24.16,7.8094736 23.808,7.9195715 23.952,7.7979749 24.48,7.539259 25.569569,7.0053789 27.764938,6.9011675 28.474224,7.3496583 28.924285,7.6342384 30.470756,6.8979538 38.647213,2.5062322 41.371147,1.0431582 41.641454,1.1402804 45.246662,4.8774388 56.766372,16.818767 65.139922,28.127684 69.949565,38.24 c 1.863232,3.917461 2.688887,6.678144 2.693541,9.00619 0.0026,1.2907 0.192232,1.791728 1.12,2.958844 0.614292,0.772769 1.114468,1.564769 1.111503,1.76 -0.003,0.195231 -0.3039,-0.111129 -0.668744,-0.6808 C 73.57359,50.296993 72.719334,49.887725 70.4,49.460871 c -0.44,-0.08098 -0.03658,-0.08871 0.896496,-0.01717 l 1.696495,0.130058 -1.004029,-1.267691 c -1.17823,-1.487636 -1.913393,-1.728575 -4.576496,-1.499876 -8.120189,0.697335 -21.715096,14.032079 -23.597536,23.145954 -0.51238,2.480698 -0.208636,3.983428 1.054852,5.218721 1.204052,1.177184 1.524105,1.232819 1.54828,0.269138 0.01401,-0.558632 0.103662,-0.475701 0.4,0.370028 1.440098,4.109948 8.554812,3.103569 15.625146,-2.210183 2.761113,-2.07513 6.847736,-6.408215 8.768196,-9.296999 1.9418,-2.920884 3.323243,-6.398405 3.337581,-8.401731 0.0076,-1.054904 0.124062,-1.469019 0.370464,-1.316734 1.220755,0.754468 -1.352321,7.243971 -4.557993,11.495619 -3.700466,4.907888 -10.004021,10.061158 -14.330754,11.71565 -2.006699,0.767338 -5.867084,1.09469 -7.037228,0.596742 z M 43.345455,74.414546 C 42.563977,73.633068 42.407387,72.904393 42.540137,70.667094 42.598977,69.675439 42.420452,69.318265 41.384866,68.355753 39.697301,66.787267 39.36,66.862982 39.36,68.810278 c 0,1.84247 0.565263,3.396707 1.556607,4.280017 l 0.684937,0.610294 -0.163672,-1.570294 c -0.183412,-1.759685 1.91e-4,-1.582839 0.31713,0.305458 0.197929,1.179248 1.376772,2.764247 2.055907,2.764247 0.176,0 -0.03345,-0.353454 -0.465454,-0.785454 z m -1.720192,-4.521212 c 0.01536,-0.372782 0.09118,-0.448608 0.193333,-0.193334 0.09244,0.231 0.08107,0.507 -0.02526,0.613334 -0.106333,0.106333 -0.181965,-0.08267 -0.16807,-0.42 z m 2.302111,-2.230243 c 1.587278,-4.291187 4.750399,-8.783605 9.236431,-13.118024 5.010264,-4.840933 10.036763,-7.76399 14.004054,-8.143768 1.851373,-0.177227 1.995089,-0.235689 1.164057,-0.473523 -3.978359,-1.13857 -13.361848,4.62741 -19.516007,11.992224 -0.867568,1.038238 -0.994477,1.127518 -0.454869,0.32 1.314579,-1.967251 5.796609,-6.440078 8.391671,-8.374439 4.637485,-3.456785 9.443455,-5.243495 12.024289,-4.470259 0.677117,0.20287 1.679294,0.827255 2.227061,1.387524 L 72,47.801497 l -0.0319,-1.260749 c -0.04832,-1.90966 -0.39509,-2.811795 -1.261925,-3.282894 L 69.92,42.83059 l 0.96,0.172006 c 0.528,0.0946 0.788089,0.09642 0.577977,0.004 C 71.247864,42.91424 71.150621,42.64407 71.241882,42.406248 71.686996,41.246299 64.827609,29.24161 60.173212,23.034848 53.964529,14.755404 42.569849,2.24 41.240492,2.24 40.416795,2.24 38.424389,3.2326477 30.88,7.4017599 19.91265,13.462438 18.72,14.201192 18.72,14.93394 c 0,0.417967 1.350776,2.121321 3.545266,4.470649 3.334081,3.569325 7.958887,8.767071 9.071586,10.195411 0.351718,0.451491 0.240044,0.411498 -0.379141,-0.13578 C 30.47497,29.03754 30.08,28.832439 30.08,29.008439 c 0,0.422669 1.353156,1.683511 1.753789,1.634144 0.172584,-0.02127 1.031067,0.887452 1.90774,2.019375 0.876672,1.131923 1.275467,1.783724 0.88621,1.448446 C 34.238483,33.775126 33.92,33.644808 33.92,33.820808 c 0,0.418736 1.28663,1.579544 1.553596,1.401667 0.186458,-0.124236 2.421902,2.774197 3.28259,4.256142 0.266452,0.458781 0.255759,0.541815 -0.04577,0.355457 -0.254632,-0.157371 -0.341161,-0.08632 -0.24526,0.201384 0.0815,0.244498 0.313408,0.444542 0.515352,0.444542 0.201944,0 0.610839,0.347884 0.908655,0.773076 0.317364,0.453101 0.368956,0.666448 0.124648,0.515457 -0.280425,-0.173312 -0.368343,-0.11214 -0.268655,0.186925 0.0815,0.244498 0.317926,0.444542 0.525391,0.444542 0.538209,0 1.936503,2.433533 1.720993,2.995143 -0.12609,0.328584 -0.05287,0.391093 0.243526,0.207909 0.281996,-0.174283 0.347416,-0.138308 0.195495,0.107505 -0.12558,0.203194 -0.07728,0.369443 0.107346,0.369443 0.360236,0 2.595974,4.277202 4.014416,7.68 1.052729,2.525465 1.272404,2.783832 1.914119,2.251256 0.686327,-0.569601 0.623033,-1.151158 -0.06644,-0.610438 -0.51712,0.405553 -0.524604,0.390176 -0.09775,-0.200818 0.892654,-1.235902 3.006086,-3.330814 3.224241,-3.195987 0.121262,0.07494 0.55451,-0.2193 0.962772,-0.653875 0.77671,-0.82677 0.573372,-1.078665 -0.314932,-0.390138 -0.283833,0.22 0.136828,-0.221017 0.934803,-0.980039 C 53.907111,49.220939 55.136,48.155955 55.84,47.61333 c 0.718545,-0.553836 0.437817,-0.200583 -0.64,0.805342 -2.471217,2.306383 -2.040161,2.346808 0.653944,0.06133 1.14107,-0.968 2.144734,-1.76 2.230365,-1.76 0.37558,0 0.0512,0.322141 -1.524309,1.51377 -2.127953,1.609471 -5.053504,4.475682 -7.180864,7.035213 -0.909231,1.093941 -1.713623,1.813941 -1.787538,1.6 C 47.517683,56.655042 46.722696,57.92 45.824959,59.68 c -0.897736,1.76 -1.639608,3.089123 -1.648604,2.953606 -0.009,-0.135517 0.643382,-1.56001 1.449728,-3.16554 l 1.466083,-2.919145 -0.543081,-1.47446 C 46.250391,54.263507 45.234866,52.124 44.292364,50.32 c -0.942502,-1.804 -1.609853,-3.282205 -1.483002,-3.2849 0.126851,-0.0027 0.07572,-0.110695 -0.113634,-0.24 -0.729678,-0.49829 -1.997296,-2.735027 -1.816712,-3.205622 0.113566,-0.295948 0.05637,-0.412037 -0.142461,-0.289152 -0.182713,0.112923 -1.035184,-0.833411 -1.89438,-2.102964 -2.169501,-3.205666 -2.195102,-3.249647 -1.721126,-2.956714 0.265797,0.164272 0.347262,0.09784 0.240465,-0.196105 -0.08883,-0.244499 -0.317671,-0.41049 -0.50853,-0.368871 -0.190859,0.04162 -0.746812,-0.46238 -1.235451,-1.12 C 34.00502,34.385522 31.253127,30.912458 29.472303,28.8 28.245322,27.344525 28.073313,27.05111 28.899421,27.822773 29.548739,28.429299 30.08,28.810413 30.08,28.669695 30.08,28.336755 26.394217,24.157284 22.011086,19.52 l -3.478312,-3.68 -1.510409,1.6 c -0.830726,0.88 -1.988982,2.176 -2.573904,2.88 -0.683666,0.822847 -0.829989,0.926373 -0.409696,0.289868 0.359588,-0.544573 1.307971,-1.717731 2.107516,-2.607018 C 16.945827,17.113564 17.6,16.227123 17.6,16.032983 17.6,15.838842 17.744,15.68 17.92,15.68 c 0.176,0 0.31542,-0.324 0.309823,-0.72 -0.0094,-0.663529 -0.04323,-0.676468 -0.431641,-0.164974 -0.231805,0.305264 -0.515539,0.46095 -0.630521,0.345969 C 16.94656,14.919894 17.856308,13.76 18.250827,13.76 c 0.231755,0 3.758695,-2.062855 4.085232,-2.389393 0.09522,-0.09522 -0.164538,-0.532563 -0.577244,-0.971869 C 21.346108,9.9594322 21.120816,9.6 21.258165,9.6 c 0.137349,0 0.527748,0.3534478 0.867553,0.785439 0.369094,0.469227 0.811894,0.710969 1.099869,0.600463 0.419417,-0.160946 0.411445,-0.262988 -0.06137,-0.78544 C 22.865343,9.8702081 22.418628,9.6 22.171519,9.6 21.924409,9.6 21.820105,9.4416334 21.939731,9.2480742 22.090443,9.004217 21.946093,9.0091472 21.469654,9.2641297 21.091485,9.4665194 20.866606,9.768886 20.969923,9.9360555 21.073239,10.103225 21.005272,10.258 20.818885,10.28 20.632498,10.302 20.3432,10.338 20.176,10.36 c -0.1672,0.022 -0.4912,0.249055 -0.72,0.504567 -0.362085,0.404358 -0.333054,0.40678 0.224,0.01869 0.597739,-0.416436 0.595769,-0.398186 -0.02984,0.276386 -0.368413,0.397245 -0.893886,0.755147 -1.167718,0.795337 -0.862773,0.126628 -1.466025,0.845561 -1.378505,1.64285 0.051,0.464547 -0.115561,0.845606 -0.420799,0.962736 -0.422082,0.161968 -0.431617,0.239341 -0.05795,0.470276 0.34788,0.215002 0.06827,0.691067 -1.258515,2.142786 -1.751591,1.91652 -1.989306,2.061387 -2.183028,1.330373 -0.08368,-0.315766 -0.04253,-0.325895 0.161195,-0.03968 0.191675,0.269284 0.629995,-0.05522 1.464362,-1.084133 1.321933,-1.630155 1.403131,-1.870238 0.721053,-2.131976 -0.506193,-0.194244 -0.94816,0.29827 -0.96179,1.071788 -0.0047,0.264 -0.199161,0.440432 -0.432244,0.392072 -0.233082,-0.04836 -0.340614,0.04664 -0.238961,0.211122 0.249945,0.404421 -0.137344,1.35452 -0.468673,1.149748 -0.427899,-0.264456 -0.688304,0.437164 -0.372016,1.002339 0.210169,0.375551 -0.0019,1.007148 -0.762209,2.269712 -0.612769,1.017604 -0.971018,1.964074 -0.856441,2.262657 0.174943,0.455895 0.235277,0.448613 0.539528,-0.06512 0.188407,-0.318127 0.610211,-0.88534 0.937343,-1.260473 L 13.50957,21.6 13.043695,22.4 c -0.256231,0.44 -0.654672,1.105024 -0.885424,1.47783 -0.390053,0.630175 -0.160161,0.945143 3.269916,4.48 9.418722,9.706441 16.532359,18.786964 21.327476,27.22442 1.431155,2.518251 2.938416,5.591928 5.42067,11.054079 0.299017,0.657981 0.640094,1.197981 0.75795,1.2 0.117855,0.002 0.457965,-0.752329 0.755799,-1.676329 0.778952,-2.416617 2.10568,-5.345969 2.385618,-5.267328 0.13182,0.03703 0.550093,-0.292672 0.929494,-0.732672 0.506594,-0.587508 0.454086,-0.405548 -0.197687,0.685052 -0.488129,0.816778 -1.017756,1.406529 -1.17695,1.310557 -0.159193,-0.09597 -0.189209,-0.01231 -0.0667,0.18591 0.122508,0.198222 -0.0021,0.703558 -0.27691,1.122968 C 44.28434,64.99466 42.891811,69.565135 42.930097,71.2 l 0.03747,1.6 0.240045,-1.92 c 0.132025,-1.056 0.455918,-2.503609 0.719762,-3.216909 z M 42.5698,66.4 c 0,-0.176 0.13959,-0.536 0.3102,-0.8 0.17061,-0.264 0.3102,-0.336 0.3102,-0.16 0,0.176 -0.13959,0.536 -0.3102,0.8 -0.17061,0.264 -0.3102,0.336 -0.3102,0.16 z m 0.652879,-1.6 c 0,-0.176 0.205794,-0.68 0.457321,-1.12 0.251527,-0.44 0.457321,-0.656 0.457321,-0.48 0,0.176 -0.205794,0.68 -0.457321,1.12 -0.251527,0.44 -0.457321,0.656 -0.457321,0.48 z M 46.08,60.357442 c 0,-0.343419 0.952121,-2.117442 1.136435,-2.117442 0.088,0 -0.07801,0.468 -0.368914,1.04 C 46.253526,60.447968 46.08,60.691563 46.08,60.357442 Z M 58.88,47.04 c -0.339381,-0.63414 -0.290394,-0.694126 0.64,-0.783686 0.264,-0.02541 0.438111,-0.237146 0.386914,-0.470518 -0.05757,-0.262396 0.09116,-0.353609 0.389752,-0.239029 0.705524,0.270735 0.936107,-0.331683 0.270064,-0.705568 -0.475879,-0.267137 -0.233292,-0.472698 1.51327,-1.282296 1.144,-0.530289 2.512,-1.048937 3.04,-1.152552 0.528,-0.103615 0.096,0.156261 -0.96,0.577503 -2.930006,1.168789 -3.04,1.224161 -3.04,1.530383 0,0.416577 0.17632,0.369353 1.92,-0.514237 0.868298,-0.44 1.763511,-0.795303 1.989362,-0.789563 0.225851,0.0057 -0.271116,0.311125 -1.10437,0.678634 -0.833254,0.367509 -1.437824,0.793085 -1.343488,0.945723 0.20306,0.328559 -0.945581,1.549943 -2.170245,2.307686 C 59.321479,47.816764 59.294754,47.814975 58.88,47.04 Z M 57.495397,46.374414 C 57.892418,45.893825 59.84,44.668568 59.84,44.899385 c 0,0.07456 -0.612,0.53919 -1.36,1.032505 -0.748,0.493316 -1.191071,0.692451 -0.984603,0.442524 z M 65.84,42.98807 c 0.22,-0.08877 0.58,-0.08877 0.8,0 0.22,0.08877 0.04,0.161404 -0.4,0.161404 -0.44,0 -0.62,-0.07263 -0.4,-0.161404 z m 2.08,-0.328654 c 0.308,-0.08049 0.812,-0.08049 1.12,0 0.308,0.08049 0.056,0.146343 -0.56,0.146343 -0.616,0 -0.868,-0.06585 -0.56,-0.146343 z M 69.6,42.24 c -0.885635,-0.225356 -0.898029,-0.246832 -0.16,-0.277239 0.44,-0.01813 1.016,0.106629 1.28,0.277239 0.544621,0.351961 0.263187,0.351961 -1.12,0 z m -2.95391,-0.221757 c 0.31135,-0.08113 0.74335,-0.0758 0.96,0.01186 0.216651,0.08766 -0.03809,0.154038 -0.56609,0.147517 -0.528,-0.0065 -0.705259,-0.07824 -0.39391,-0.159374 z M 38.041712,34.96 C 37.602798,34.476 36.397314,33 35.362859,31.68 32.654389,28.223897 30.186805,25.410875 25.340132,20.254185 22.634386,17.375366 21.106552,15.50761 21.173804,15.160906 21.307641,14.470944 23.538952,13.107046 32.985552,7.940923 39.481385,4.3885058 40.640288,3.8559502 41.315933,4.1128299 42.883373,4.7087693 59.2,23.313062 59.2,24.504324 c 0,0.557827 -1.042855,1.22404 -7.84,5.00848 C 43.429749,33.928121 39.779749,35.84 39.280647,35.84 c -0.2425,0 -0.80002,-0.396 -1.238935,-0.88 z M 44.70792,32.775052 C 53.724878,27.875865 58.880104,24.868528 58.87513,24.510513 58.867039,23.9282 53.093382,16.766145 49.305772,12.64 43.741115,6.5779773 41.501642,4.4 40.833112,4.4 39.692301,4.4 21.44,14.484302 21.44,15.114595 c 0,0.181858 1.404,1.845665 3.12,3.697348 5.222906,5.635879 7.344303,8.055162 10.72241,12.228057 3.164005,3.908418 3.679673,4.465085 4.14551,4.4751 0.125356,0.0027 2.501356,-1.230327 5.28,-2.740048 z m 0.439276,-5.140105 C 44.428238,26.818168 43.84,25.952604 43.84,25.71147 c 0,-0.241133 0.782635,-0.822264 1.739188,-1.291401 1.530938,-0.750843 1.805544,-0.798322 2.293352,-0.396524 0.673722,0.554934 2.36746,2.852144 2.36746,3.210978 0,0.356665 -2.660286,1.885477 -3.280919,1.885477 -0.277579,0 -1.092928,-0.668274 -1.811885,-1.485053 z m 3.621748,-0.22144 0.928943,-0.743314 -1.198454,-1.326545 -1.198454,-1.326545 -1.250489,0.637952 C 45.36272,25.005929 44.8,25.441774 44.8,25.623601 c 0,0.660236 1.776333,2.53634 2.4,2.5348 0.352,-8.69e-4 1.058025,-0.336071 1.568944,-0.744894 z M 23.505143,22.181118 c -2.279828,-2.408386 -4.419535,-4.748386 -4.754903,-5.2 -0.335367,-0.451615 0.967384,0.834882 2.895004,2.858882 4.349332,4.566798 6.316903,6.72 6.140655,6.72 -0.07459,0 -2.000927,-1.970497 -4.280756,-4.378882 z M 17.28,12.999182 c 0,-0.06645 0.252,-0.318449 0.56,-0.56 0.507538,-0.398038 0.518856,-0.38672 0.120818,0.120818 C 17.542779,13.093039 17.28,13.262553 17.28,12.999182 Z M 50.969096,52.96 51.629118,52 50.587021,52.96 c -0.573153,0.528 -1.194658,1.248 -1.381122,1.6 l -0.339025,0.64 0.7211,-0.64 c 0.396604,-0.352 1.018109,-1.072 1.381122,-1.6 z M 41.6,44.48 c -0.188385,-0.352 -0.414518,-0.64 -0.502518,-0.64 -0.088,0 -0.0059,0.288 0.182518,0.64 0.188385,0.352 0.414518,0.64 0.502518,0.64 0.088,0 0.0059,-0.288 -0.182518,-0.64 z m -2.129575,-3.373801 c -0.10422,-0.27159 -0.25812,-0.425171 -0.342001,-0.34129 -0.08388,0.08388 -0.05759,0.306092 0.05842,0.493801 0.315536,0.510548 0.499961,0.411364 0.283583,-0.152511 z M 38.08,38.88 c -0.22616,-0.272506 -0.4832,-0.423466 -0.5712,-0.335466 -0.088,0.088 0.02504,0.38296 0.2512,0.655466 0.22616,0.272507 0.4832,0.423466 0.5712,0.335466 0.088,-0.088 -0.02504,-0.382959 -0.2512,-0.655466 z M 36.130909,36.189091 C 35.184128,34.908501 34.913616,35.179014 35.84,36.48 c 0.3904,0.548267 0.778789,0.927877 0.863087,0.843579 0.0843,-0.0843 -0.173182,-0.594817 -0.572178,-1.134488 z M 32.96,32 c -0.570434,-0.720232 -1.10625,-1.240417 -1.190701,-1.155966 -0.08445,0.08445 0.316965,0.739036 0.892034,1.454633 0.57507,0.715597 1.110885,1.235782 1.190701,1.155966 C 33.93185,33.374817 33.530434,32.720232 32.96,32 Z M 8.0627376,19.1137 5.6024882,16.6274 5.3615772,17.557106 c -0.2209515,0.852679 -0.048878,1.116861 2.0769297,3.188675 2.2462574,2.189204 2.3296791,2.237277 2.7011601,1.556594 C 10.490155,21.66016 10.31226,21.387042 8.0627376,19.1137 Z M 7.5024103,20.091843 C 6.2800846,18.832342 5.784,18.23404 6.4,18.762283 c 2.2087517,1.894087 3.632777,3.311607 3.480142,3.464242 -0.085427,0.08543 -1.155406,-0.87518 -2.3777317,-2.134682 z m 2.9705317,0.128733 c 0.270224,-0.171664 -0.400341,-1.038254 -2.1471331,-2.774801 -2.1017271,-2.0894 -2.5776055,-2.427377 -2.7575473,-1.958457 -0.1620474,0.422289 0.342199,1.130714 1.9785512,2.779702 2.3284805,2.346461 2.3183206,2.339678 2.9261292,1.953556 z M 11.4148,19.012583 c 0.133285,-0.347333 -0.54881,-1.255937 -2.1620339,-2.88 C 7.9565544,14.827662 6.79982,13.76 6.6822452,13.76 c -0.1175748,0 -0.3069463,0.242807 -0.4208256,0.539572 -0.1491254,0.388615 0.4433643,1.19436 2.1177548,2.88 C 9.6578188,18.466807 10.820106,19.52 10.962034,19.52 c 0.141929,0 0.345674,-0.228338 0.452766,-0.507417 z m 0.542339,-1.885194 C 12.516966,16.70339 12.397526,16.525337 10.045585,14.277768 8.1560883,12.47212 7.436081,11.96407 7.1284469,12.219384 6.9038011,12.405823 6.72,12.717119 6.72,12.911152 c 0,0.352635 4.152786,4.697906 4.471418,4.678671 0.09272,-0.0056 0.437294,-0.213693 0.765721,-0.462434 z m 1.497477,-1.4747 c 0.319077,-0.596201 0.09258,-0.919304 -2.125527,-3.032054 C 9.4100976,10.792789 8.7503404,10.335637 8.423214,10.607128 8.1904463,10.800308 8,11.180796 8,11.452656 c 0,0.463162 4.370895,4.819194 4.868741,4.852186 0.125808,0.0083 0.389452,-0.285132 0.585875,-0.652153 z M 12.707841,10.96 C 11.447338,9.684 10.23748,8.64 10.019268,8.64 c -0.2182129,0 -0.553697,0.2932574 -0.7455205,0.651683 -0.3076314,0.5748145 -0.075023,0.910653 1.9720285,2.847202 2.261353,2.139282 2.339152,2.182015 3.037343,1.668317 L 14.999664,13.28 Z m 3.482563,1.484212 C 16.798419,11.770176 16.793468,11.762257 14.281215,9.3904735 12.895883,8.0826011 11.61017,7.0632766 11.424076,7.1253079 c -0.186094,0.062031 -0.49079,0.354448 -0.677103,0.6498148 -0.279673,0.443375 0.07768,0.9562632 2.04913,2.9409543 1.313334,1.322158 2.477165,2.403923 2.586292,2.403923 0.109127,0 0.472731,-0.304105 0.808009,-0.675788 z M 15.517969,7.6971862 C 13.16575,5.3310097 13.144555,5.3185858 12.482399,5.9178285 l -0.666811,0.6034562 2.460568,2.4750843 2.460567,2.475084 0.575002,-0.695726 c 0.568642,-0.688032 0.548803,-0.722081 -1.793756,-3.0785408 z m 5.584724,0.064003 C 21.181175,7.7062391 20.184737,6.5935038 18.888388,5.2884444 16.927351,3.3142312 16.432996,2.9682676 15.945695,3.2290634 15.623563,3.4014632 15.36,3.6941632 15.36,3.8795078 c 0,0.1853447 1.041409,1.322183 2.314243,2.5263074 1.89264,1.7904728 2.402737,2.122455 2.8,1.8223007 0.267166,-0.2018591 0.549969,-0.411976 0.62845,-0.4669264 z M 23.90215,6.213551 C 23.958332,6.045004 23.007491,4.9179318 21.78917,3.7089461 20.139245,2.0716644 19.429528,1.5662447 19.007674,1.7281252 18.537841,1.9084171 18.845823,2.3526936 20.814637,4.3347357 23.043598,6.5786719 23.656185,6.9514443 23.90215,6.213551 Z M 24.208219,3.2533803 C 22.874946,1.9201071 21.678455,0.93487874 21.54935,1.0639838 21.237271,1.376062 25.946807,6.1012033 26.332406,5.8628898 26.497376,5.7609327 25.541492,4.5866534 24.208219,3.2533803 Z M 27.84,5.6391823 c 0,-0.06645 -0.252,-0.3184497 -0.56,-0.56 C 26.772462,4.6811437 26.761144,4.6924622 27.159182,5.2 27.577221,5.7330394 27.84,5.9025533 27.84,5.6391823 Z m -1.92,-1.92 c 0,-0.06645 -0.252,-0.3184497 -0.56,-0.56 C 24.852462,2.7611437 24.841144,2.7724622 25.239182,3.28 25.657221,3.8130394 25.92,3.9825533 25.92,3.7191823 Z M 49.788446,77.095448 c -0.696971,-0.828302 -0.820702,-1.272666 -0.77965,-2.8 l 0.0488,-1.815448 0.191204,1.951523 c 0.197867,2.019524 0.661567,2.890606 1.780094,3.34399 0.502769,0.203792 0.530007,0.268541 0.119556,0.284204 -0.292355,0.01116 -0.904355,-0.422765 -1.36,-0.964269 z m -3.267281,-4.457321 c 0.07328,-0.61703 0.362516,-1.62503 0.64274,-2.24 0.511863,-1.123314 0.443378,-0.745643 -0.348503,1.921873 -0.37587,1.266152 -0.411393,1.304559 -0.294237,0.318127 z m 2.784098,-0.824793 c 0.01536,-0.372782 0.09118,-0.448608 0.193333,-0.193334 0.09244,0.231 0.08107,0.507 -0.02526,0.613334 -0.106333,0.106333 -0.181965,-0.08267 -0.16807,-0.42 z m 0.61497,-1.837502 c -1.28e-4,-0.145293 0.578945,-1.255858 1.286828,-2.467922 2.622984,-4.491169 6.859455,-9.091179 10.872939,-11.805964 2.141757,-1.448719 2.56,-1.698322 2.56,-1.52778 0,0.07256 -0.972,0.783765 -2.16,1.580444 -4.413335,2.959608 -8.009509,6.837017 -10.993958,11.853732 -0.861067,1.447412 -1.565681,2.512782 -1.565809,2.36749 z m -2.235299,-1.02091 c -0.008,-0.528019 2.386353,-4.464924 3.931271,-6.463938 1.715921,-2.22028 5.578286,-6.137393 7.393812,-7.498618 L 60.32,54.010182 59.2,55.034615 C 53.990822,59.799308 51.119718,63.176872 48.858791,67.2 c -0.642907,1.144 -1.171143,1.933715 -1.173857,1.754922 z M 60.695397,53.734414 C 61.092418,53.253825 63.04,52.028568 63.04,52.259385 c 0,0.07456 -0.612,0.53919 -1.36,1.032505 -0.748,0.493316 -1.191071,0.692451 -0.984603,0.442524 z M 73.540408,53.049938 C 73.067632,52.560472 72.790531,52.16 72.924627,52.16 c 0.303648,0 1.794444,1.563678 1.609968,1.688676 -0.07403,0.05016 -0.521411,-0.309272 -0.994187,-0.798738 z M 65.6,53.557929 c 0,-0.21645 2.283933,-1.140662 2.438028,-0.986567 0.07087,0.07087 -0.448695,0.355721 -1.154587,0.633003 C 66.177548,53.481648 65.6,53.640752 65.6,53.557929 Z M 74.930526,53.12 c 0,-0.44 0.07263,-0.62 0.161404,-0.4 0.08877,0.22 0.08877,0.58 0,0.8 -0.08877,0.22 -0.161404,0.04 -0.161404,-0.4 z M 68.74,52.261404 c 0.231,-0.09244 0.507,-0.08107 0.613333,0.02526 0.106334,0.106333 -0.08267,0.181965 -0.42,0.16807 -0.372781,-0.01535 -0.448607,-0.09118 -0.193333,-0.193333 z m -5.38,-0.271713 c 0,-0.321585 3.956928,-2.047481 5.12,-2.233194 0.779532,-0.124471 0.584979,0.0028 -0.64,0.418564 -0.968,0.328569 -2.372,0.912522 -3.12,1.297672 -0.748,0.385151 -1.36,0.617782 -1.36,0.516958 z m 7.12,-0.05027 c 0.308,-0.08049 0.812,-0.08049 1.12,0 0.308,0.08049 0.056,0.146343 -0.56,0.146343 -0.616,0 -0.868,-0.06585 -0.56,-0.146343 z M 8.3452632,34.053333 C 8.360618,33.680552 8.4364441,33.604726 8.5385965,33.86 c 0.092439,0.231 0.08107,0.507 -0.025263,0.613333 -0.1063333,0.106334 -0.1819649,-0.08267 -0.1680701,-0.42 z M 9.3305263,33.6 c 0,-0.44 0.072632,-0.62 0.1614035,-0.4 0.088772,0.22 0.088772,0.58 0,0.8 -0.088772,0.22 -0.1614035,0.04 -0.1614035,-0.4 z m -0.64,-0.96 c 0,-0.44 0.072632,-0.62 0.1614035,-0.4 0.088772,0.22 0.088772,0.58 0,0.8 -0.088772,0.22 -0.1614035,0.04 -0.1614035,-0.4 z M 9.6252632,32.133333 C 9.640618,31.760552 9.7164441,31.684726 9.8185965,31.94 c 0.092439,0.231 0.08107,0.507 -0.025263,0.613333 -0.1063333,0.106334 -0.1819649,-0.08267 -0.1680701,-0.42 z M 9.0237952,31.2 c 0,-0.352 0.1152922,-1 0.2562048,-1.44 0.2028715,-0.633466 0.2562048,-0.666773 0.2562048,-0.16 0,0.352 -0.1152922,1 -0.2562048,1.44 -0.2028715,0.633467 -0.2562048,0.666773 -0.2562048,0.16 z m 0.9467311,-1.12 c 0,-0.44 0.072632,-0.62 0.1614037,-0.4 0.08877,0.22 0.08877,0.58 0,0.8 -0.08877,0.22 -0.1614037,0.04 -0.1614037,-0.4 z m -0.32,-1.92 c 0,-0.44 0.072632,-0.62 0.1614035,-0.4 0.088772,0.22 0.088772,0.58 0,0.8 -0.088772,0.22 -0.1614035,0.04 -0.1614035,-0.4 z M 15.36,14.279182 c 0,-0.06645 0.252,-0.318449 0.56,-0.56 0.507538,-0.398038 0.518856,-0.38672 0.120818,0.120818 C 15.622779,14.373039 15.36,14.542553 15.36,14.279182 Z"
       id="path1" />
  </g>
</svg>
