<?xml version="1.0" encoding="UTF-8" standalone="no"?>
<!-- Created with Inkscape (http://www.inkscape.org/) -->

<svg
   version="1.1"
   id="svg1"
   width="39.360001"
   height="40"
   viewBox="0 0 39.360001 40"
   sodipodi:docname="thermostat_hm-cc-rt-dn.svg"
   inkscape:version="1.4 (86a8ad7, 2024-10-11)"
   xmlns:inkscape="http://www.inkscape.org/namespaces/inkscape"
   xmlns:sodipodi="http://sodipodi.sourceforge.net/DTD/sodipodi-0.dtd"
   xmlns="http://www.w3.org/2000/svg"
   xmlns:svg="http://www.w3.org/2000/svg">
  <defs
     id="defs1" />
  <sodipodi:namedview
     id="namedview1"
     pagecolor="#ffffff"
     bordercolor="#000000"
     borderopacity="0.25"
     inkscape:showpageshadow="2"
     inkscape:pageopacity="0.0"
     inkscape:pagecheckerboard="0"
     inkscape:deskcolor="#d1d1d1"
     showgrid="false"
     inkscape:zoom="13.825"
     inkscape:cx="19.638336"
     inkscape:cy="20"
     inkscape:window-width="1366"
     inkscape:window-height="705"
     inkscape:window-x="-8"
     inkscape:window-y="-8"
     inkscape:window-maximized="1"
     inkscape:current-layer="g1" />
  <g
     inkscape:groupmode="layer"
     inkscape:label="Image"
     id="g1">
    <path
       style="fill:#000000"
       d="M 13.44,39.279886 C 11.197096,38.779422 8.2007213,36.888509 6.1630665,34.687653 3.8934241,32.23623 2.3755795,29.28169 2.3575111,27.28 2.3438239,25.763664 2.5118116,25.333657 3.6096334,24.074876 L 4.6248138,22.910853 4.5401534,19.335427 4.4554931,15.76 11.730892,8.32 c 4.00147,-4.092 7.384499,-7.46203035 7.517842,-7.48895634 0.133343,-0.026926 1.238927,0.48922794 2.456854,1.14700864 1.217927,0.6577807 2.470969,1.3167356 2.784538,1.4643441 l 0.570125,0.2683791 1.096125,-1.1353877 C 26.759244,1.9509245 27.368667,1.44 27.510649,1.44 c 0.141982,0 0.40017,-0.097947 0.57375,-0.2176602 0.513588,-0.35420536 2.148307,-0.073686 3.519362,0.603927 2.057657,1.0169492 4.263431,3.4001793 5.087664,5.496971 0.345516,0.878968 0.362763,2.6394114 0.02858,2.9167622 -0.132,0.10955 -0.24,0.277641 -0.24,0.373535 0,0.09589 -0.301229,0.481282 -0.669398,0.856419 l -0.669397,0.682066 0.272534,2.68399 c 0.334627,3.295503 0.338409,4.361254 0.0182,5.129129 C 35.290107,20.305257 34.312561,21.45074 33.149234,22.64 20.042905,36.038501 17.307376,38.781156 16.783396,39.048471 15.960009,39.468531 14.681908,39.556996 13.44,39.279886 Z m 2.444374,-0.249507 c 2.205948,-0.612596 2.653353,-3.26492 1.077372,-6.386921 -0.535827,-1.061466 -0.572302,-1.194456 -0.281746,-1.027249 0.116199,0.06687 0.144133,0.05407 0.06667,-0.03056 C 16.673334,31.505543 16.552547,31.44 16.478253,31.44 c -0.177851,0 -1.165264,-1.366322 -1.062023,-1.469563 0.04389,-0.04389 0.27476,0.214807 0.513046,0.574882 C 16.3269,31.146168 16.650765,31.4687 16.385838,31 c -0.277289,-0.49057 -0.889125,-1.232777 -0.99233,-1.203777 -0.131783,0.03703 -3.152937,-2.940955 -3.153279,-3.108223 -1.26e-4,-0.0616 -0.104756,-0.2056 -0.232512,-0.32 -0.200524,-0.17956 -0.203314,-0.169716 -0.02041,0.072 0.116531,0.154 0.139874,0.28 0.05187,0.28 -0.209587,0 -0.542086,-0.403763 -0.427149,-0.5187 0.04909,-0.04909 0.0013,-0.143591 -0.106109,-0.21 -0.131886,-0.08151 -0.154103,-0.05398 -0.06837,0.08474 0.08465,0.136972 0.05289,0.180776 -0.09528,0.131388 C 11.220022,26.166674 11.12,26.055333 11.12,25.96 c 0,-0.09533 -0.06554,-0.233333 -0.145652,-0.306667 -0.08599,-0.07872 -0.09326,-0.04291 -0.01773,0.08742 0.0875,0.150992 0.05768,0.197343 -0.09435,0.146667 C 10.740022,25.846674 10.64,25.735333 10.64,25.64 c 0,-0.09533 -0.06554,-0.233333 -0.145652,-0.306667 -0.08462,-0.07747 -0.09743,-0.04953 -0.03056,0.06667 0.166507,0.289339 0.03383,0.253888 -0.9967183,-0.266334 -2.9067975,-1.467347 -5.6036699,-1.30606 -6.4923947,0.388277 -0.4405334,0.839868 -0.4189526,2.501289 0.049645,3.822003 1.9530667,5.504595 8.9475216,10.772952 12.8600506,9.686433 z M 20.015205,35.44 c 0.95905,-2.061315 -0.535839,-5.793919 -3.614181,-9.024288 -3.521426,-3.695336 -8.0257508,-5.621564 -10.318916,-4.412779 -0.2211593,0.116579 -0.7572623,0.575439 -1.19134,1.019688 l -0.789232,0.807727 0.6230046,-0.172019 c 0.7631188,-0.210708 2.1638084,-0.06832 3.3531339,0.340871 1.6822768,0.578788 4.6892205,2.386037 4.4944075,2.701252 -0.0438,0.07086 0.187568,0.374252 0.514144,0.674196 L 13.68,27.92 13.128614,27.32 c -0.303263,-0.33 -0.479387,-0.6 -0.391387,-0.6 0.17867,0 1.163841,0.972271 1.17539,1.16 0.0041,0.066 0.03991,0.102 0.07967,0.08 0.1129,-0.06247 1.36771,1.205823 1.36771,1.382406 0,0.0866 -0.234,-0.05401 -0.52,-0.312471 L 14.32,28.56 l 0.464484,0.514311 c 0.255466,0.282871 0.522855,0.478236 0.594196,0.434144 0.183369,-0.113328 1.142658,1.236363 1.884578,2.651545 0.801031,1.527935 1.176418,2.971644 1.109042,4.265297 L 18.32,37.429473 19.018719,36.754737 C 19.403015,36.383632 19.851434,35.792 20.015205,35.44 Z m -1.819248,0.202865 c -0.03561,-0.287576 -0.06548,-0.09087 -0.06638,0.437135 -8.98e-4,0.528 0.02824,0.763289 0.06475,0.522865 0.03651,-0.240424 0.03724,-0.672424 0.0016,-0.96 z m 10.641112,-8.869996 c 3.355277,-3.446922 6.186069,-6.434922 6.290648,-6.64 C 35.316063,19.763526 35.58531,18.56 35.479591,18.56 c -0.0302,0 -3.291463,3.32098 -7.24725,7.379954 -7.176587,7.363791 -7.192737,7.381875 -7.373414,8.25662 l -0.181073,0.876664 1.029356,-1.016619 c 0.566145,-0.55914 3.774582,-3.836828 7.129859,-7.28375 z M 18.029299,34.53 c -0.05108,-0.127637 -0.08899,-0.08972 -0.09667,0.09667 -0.0069,0.168666 0.03087,0.263166 0.08404,0.21 0.05317,-0.05317 0.05885,-0.191167 0.01263,-0.306667 z m -0.82161,-2.195131 c -0.351466,-0.679661 -0.465477,-0.62691 -0.136424,0.06312 0.146348,0.306895 0.294492,0.529586 0.329209,0.494869 0.03472,-0.03472 -0.05204,-0.285813 -0.192785,-0.557991 z m 11.088232,-6.862487 c 6.960426,-7.125782 7.23253,-7.427112 7.151831,-7.92 C 35.401611,17.270572 35.211681,15.528 35.025685,13.68 34.839688,11.832 34.673042,10.304222 34.65536,10.284939 c -0.01768,-0.01928 -2.044371,2.029855 -4.503754,4.553642 -2.459383,2.523788 -5.683846,5.830288 -7.165473,7.347778 l -2.693867,2.759073 0.25473,3.567284 c 0.140102,1.962006 0.254343,3.771284 0.253868,4.020617 -4.75e-4,0.249334 0.05768,0.429334 0.129236,0.4 0.07156,-0.02933 3.386174,-3.386761 7.365821,-7.460951 z m -7.702759,6.329483 C 20.554891,31.602839 20.522126,31.728 20.52035,32.08 c -0.0018,0.352 0.02954,0.514839 0.06958,0.361865 0.04005,-0.152974 0.0415,-0.440974 0.0032,-0.64 z m -0.589481,-3.835329 c -0.10812,-1.609595 -0.20913,-2.940486 -0.224466,-2.957537 -0.01534,-0.01705 -3.373933,-1.824787 -7.463549,-4.017192 l -7.4356659,-3.98619 -0.047421,2.257191 c -0.026081,1.241456 -0.00408,2.495136 0.048895,2.785957 l 0.096315,0.528766 0.5467321,-0.480037 c 2.1009326,-1.844644 6.5753859,-0.450173 10.4488979,3.256416 1.579312,1.511253 2.686945,2.938629 3.504337,4.515941 0.327731,0.632419 0.624367,1.12136 0.659191,1.086536 0.03482,-0.03482 -0.02515,-1.380257 -0.133266,-2.989851 z m 0.432276,1.596329 C 20.400347,29.275289 20.370477,29.472 20.369579,30 c -8.98e-4,0.528 0.02824,0.763289 0.06475,0.522865 0.03651,-0.240424 0.03724,-0.672424 0.0016,-0.96 z m -0.16,-2.24 c -0.03561,-0.287576 -0.06548,-0.09087 -0.06638,0.437135 -8.98e-4,0.528 0.02824,0.763289 0.06475,0.522865 0.03651,-0.240424 0.03724,-0.672424 0.0016,-0.96 z m -0.162795,-1.921 C 20.074891,25.202839 20.042126,25.328 20.04035,25.68 c -0.0018,0.352 0.02954,0.514839 0.06958,0.361865 0.04005,-0.152974 0.0415,-0.440974 0.0032,-0.64 z M 8.8000001,24.48 c -0.132,-0.08531 -0.312,-0.1551 -0.4,-0.1551 -0.088,0 -0.052,0.06979 0.08,0.1551 0.132,0.0853 0.312,0.1551 0.4,0.1551 0.088,0 0.052,-0.0698 -0.08,-0.1551 z M 19.666667,24.259463 c -0.270975,-0.246059 -4.557761,-2.459869 -4.623299,-2.387593 -0.04585,0.05057 -0.01137,0.12111 0.07663,0.156764 0.088,0.03565 1.132,0.59386 2.32,1.24046 1.188,0.6466 2.19,1.147572 2.226667,1.113271 0.03667,-0.0343 0.03667,-0.08961 0,-0.122902 z M 22.150782,22.44 c 0.96293,-0.99 1.717756,-1.8 1.67739,-1.8 -0.04036,0 -0.900217,0.836142 -1.910782,1.858093 -1.010564,1.021952 -1.76539,1.831952 -1.67739,1.8 C 20.328,24.266142 21.187852,23.43 22.150782,22.44 Z m 1.241819,-2.20428 c -0.14993,-0.101223 -1.248428,-0.696961 -2.441106,-1.323862 l -2.168504,-1.139819 -1.870229,1.875114 -1.87023,1.875114 2.438734,1.313676 2.438734,1.313675 1.872601,-1.864928 c 1.642352,-1.635623 1.839082,-1.887557 1.6,-2.04897 z M 5.0766667,23.903333 c -0.053167,-0.05317 -0.1911666,-0.05885 -0.3066666,-0.01263 -0.1276373,0.05108 -0.089724,0.08899 0.096667,0.09667 0.1686667,0.0069 0.2631667,-0.03087 0.21,-0.08404 z m 1.8433334,-0.0093 c -0.11,-0.04439 -0.29,-0.04439 -0.4,0 -0.11,0.04439 -0.02,0.0807 0.2,0.0807 0.22,0 0.31,-0.03632 0.2,-0.0807 z M 14.48,21.506047 c -0.532265,-0.405481 -4.5751599,-2.50422 -4.6601907,-2.419189 -0.043556,0.04356 0.9871677,0.654651 2.2904987,1.357987 2.288585,1.235026 3.038991,1.571074 2.369692,1.061202 z m 2.154646,-2.060678 c 1.006185,-1.009047 1.79701,-1.860816 1.75739,-1.892822 -0.347912,-0.281045 -4.72589,-2.514856 -4.858772,-2.47913 C 13.229625,15.155052 9.8332195,18.76257 10,18.8263 c 0.088,0.03363 1.132,0.595581 2.32,1.248787 1.188,0.653207 2.233175,1.191533 2.32261,1.196281 0.08944,0.0047 0.985852,-0.816952 1.992036,-1.825999 z M 33.995403,10.24 c 0.339529,-0.396 -1.680539,1.613177 -4.489039,4.464837 -2.8085,2.85166 -5.206291,5.33566 -5.328423,5.52 -0.26715,0.403219 8.936437,-8.957277 9.817462,-9.984837 z M 33.33349,10.454485 34.58698,9.1493001 33.89349,8.7532683 C 33.512071,8.5354508 30.069362,6.6815645 26.243027,4.6335209 L 19.286053,0.90980542 13.968162,6.3349027 c -2.92484,2.9838035 -5.3015743,5.4809813 -5.2816313,5.5492833 0.019943,0.0683 3.4522373,1.952666 7.6273213,4.187476 l 7.591062,4.063289 4.087543,-4.187641 c 2.248149,-2.303202 4.651614,-4.774974 5.341033,-5.492825 z M 19.92,12.486589 c -3.608,-1.930073 -6.56,-3.5756808 -6.56,-3.6569062 0,-0.081225 1.30974,-1.4876197 2.910533,-3.1253206 l 2.910534,-2.9776379 6.647496,3.5566378 c 3.656124,1.9561509 6.630384,3.6048955 6.609467,3.663877 -0.06555,0.1848519 -5.741385,6.0528719 -5.852497,6.0506669 C 26.52749,15.996755 23.528,14.416662 19.92,12.486589 Z M 32.056311,9.9147965 C 31.865303,9.727272 19.376941,3.04 19.21775,3.04 c -0.228047,0 -5.704532,5.8102719 -5.53775,5.8752697 0.088,0.034295 3.004,1.6005643 6.48,3.4805983 l 6.32,3.418244 2.856311,-2.882746 c 1.570971,-1.585509 2.794971,-2.9429658 2.72,-3.0165695 z M 9.4400001,18.807094 c 0,-0.06694 -4.1782087,-2.32987 -4.5551753,-2.467094 -0.6082389,-0.221413 0.4733877,0.461471 2.241505,1.415172 1.9734675,1.064464 2.3136703,1.219139 2.3136703,1.051922 z m 1.9173089,-2.084395 c 1.146116,-1.149377 1.774166,-1.891966 1.67739,-1.983298 -0.08508,-0.0803 -1.192794,-0.702891 -2.461576,-1.38354 L 8.2662451,12.118318 6.5564316,13.939159 c -0.9403975,1.001462 -1.7383027,1.877183 -1.7731226,1.946044 -0.048983,0.09687 4.292558,2.571566 4.6593011,2.655819 0.045435,0.01044 0.9070499,-0.807808 1.9146989,-1.818323 z M 36.800001,9.6914803 c 0,-0.087698 -0.373103,0.1978425 -0.829116,0.6345347 L 35.141769,11.12 35.825376,10.280486 c 0.375985,-0.4617322 0.749087,-0.8799814 0.829116,-0.9294424 0.08003,-0.049461 0.145509,-0.1732203 0.145509,-0.2750207 0,-0.1018004 -0.390887,0.200939 -0.868636,0.6727542 -0.673716,0.6653459 -0.865657,0.9626149 -0.855362,1.3247359 l 0.01328,0.46689 0.855361,-0.844736 c 0.470449,-0.464605 0.855362,-0.9164887 0.855362,-1.0041867 z m 0,-1.3264717 c 0,-0.3509502 -0.201863,-0.2327352 -1.074969,0.6295258 -0.464767,0.4589939 -0.845031,0.97874 -0.845031,1.1549916 0,0.250662 0.209086,0.113552 0.96,-0.629526 0.528,-0.5224906 0.96,-1.0422367 0.96,-1.1549914 z M 36.417116,7.5869069 c -0.09274,-0.2416703 -0.22293,-0.1709543 -0.883957,0.4801328 -0.563247,0.5547771 -0.752314,0.8510704 -0.691491,1.0836583 0.07392,0.282686 0.177276,0.2265495 0.883958,-0.4801327 0.584168,-0.5841679 0.77088,-0.8767714 0.69149,-1.0836584 z M 35.314969,7.9654656 C 36.132715,7.1578775 36.343405,6.6922355 35.989918,6.4737689 35.787894,6.348911 35.395362,6.684441 34.515509,7.7340692 33.995622,8.354273 33.911702,8.5366587 34.093322,8.6516191 c 0.32815,0.2077095 0.301232,0.2228283 1.221647,-0.6861535 z M 34.675696,7.3246221 c 0.552367,-0.5474578 1.004305,-1.0786418 1.004305,-1.1804088 0,-0.1017671 -0.11585,-0.2811773 -0.257443,-0.3986894 -0.224786,-0.186556 -0.386355,-0.072339 -1.273699,0.9004088 -1.161009,1.2727513 -1.251613,1.5448823 -0.553163,1.6614357 0.04163,0.00695 0.527632,-0.4352884 1.08,-0.9827463 z m -1.875695,0.3021847 c 0,-0.1172563 -0.265489,-0.3872563 -0.589975,-0.6 C 31.88554,6.814063 31.502101,6.424 31.357939,6.16 31.213777,5.896 30.946073,5.6578844 30.76304,5.6308541 c -0.183032,-0.02703 -0.588024,-0.2970302 -0.899982,-0.6 C 29.5511,4.7278844 29.187681,4.48 29.055459,4.48 28.756855,4.48 27.954195,4.1343854 27.821561,3.9486998 27.681144,3.752118 25.919756,3.7271413 25.761948,3.9194943 c -0.08502,0.1036346 0.188937,0.1666382 0.773187,0.1778134 0.985616,0.018852 2.425738,0.5072573 3.064865,1.0394226 0.278139,0.2315904 0.312166,0.3047061 0.11169,0.2399963 -0.15857,-0.051184 -0.247396,-0.026861 -0.19739,0.05405 0.05001,0.080911 0.01775,0.1923358 -0.07169,0.24761 C 29.115158,5.8807635 29.3006,6.0857922 30.24,6.56 c 0.528,0.2665336 0.96,0.4364109 0.96,0.3775052 0,-0.058906 0.162,0.028008 0.36,0.1931418 0.198,0.1651337 0.03901,-0.039707 -0.353313,-0.4552019 C 30.814365,6.2599503 30.575316,5.92 30.675468,5.92 c 0.100153,0 0.565143,0.4303252 1.033314,0.9562783 0.868128,0.9752753 1.091219,1.1287143 1.091219,0.7505285 z M 30.598467,6.4654289 c -0.286844,-0.2260625 -0.48367,-0.472289 -0.43739,-0.54717 0.04628,-0.074881 -1.56e-4,-0.1882471 -0.103188,-0.2519245 -0.116996,-0.072308 -0.144467,-0.046422 -0.07317,0.068944 C 30.047512,5.8368754 30.026886,5.92 29.938886,5.92 c -0.286691,0 -0.343824,-0.2838687 -0.07769,-0.3859949 0.261859,-0.1004849 0.779927,0.1982024 0.620428,0.3577018 -0.04736,0.047359 0.108372,0.2890986 0.346068,0.5371999 0.536804,0.5603023 0.452436,0.5737443 -0.229228,0.036522 z M 34.961274,4.9614075 34.659819,4.6283029 33.581042,5.698813 c -1.059966,1.0518437 -1.074088,1.0769024 -0.809909,1.4371068 l 0.268868,0.3665967 1.111364,-1.1040022 c 1.102914,-1.0956075 1.109073,-1.1065351 0.809909,-1.4371068 z m -1.60698,0.6443432 C 34.448889,4.502703 34.456995,4.4881757 34.16063,4.1606961 L 33.861256,3.8298908 33.077931,4.5949454 C 31.909922,5.7357124 31.607318,6.1996347 31.844681,6.4856395 31.951657,6.6145378 32.086298,6.72 32.143883,6.72 c 0.05758,0 0.60227,-0.5014122 1.210411,-1.1142493 z m 0.113125,-1.6644171 c 0.122985,-0.224218 0.09992,-0.3625624 -0.09251,-0.555 -0.235112,-0.2351115 -0.34802,-0.1653506 -1.363769,0.8426155 l -1.107435,1.0989492 0.348149,0.2860947 c 0.342622,0.2815523 0.361674,0.2729157 1.199948,-0.5439491 0.46849,-0.4565242 0.925519,-0.9644438 1.01562,-1.1287103 z M 29.04,5.6 c 0.05439,-0.088 0.02689,-0.16 -0.06111,-0.16 -0.088,0 -0.204499,0.072 -0.258886,0.16 -0.05439,0.088 -0.02689,0.16 0.06112,0.16 0.088,0 0.204498,-0.072 0.258885,-0.16 z M 28.64,5.2962397 C 28.64,5.1008331 27.870589,4.7992369 27.392472,4.80723 27.00004,4.8137906 27.02666,4.8493577 27.68,5.1913953 c 0.6816,0.356832 0.96,0.3872369 0.96,0.1048444 z m 0.64,-0.092131 C 29.28,5.1070646 28.377498,4.6378191 28.207946,4.6467065 28.137576,4.6503951 28.332,4.7913771 28.64,4.96 c 0.630636,0.3452585 0.64,0.3488302 0.64,0.2441088 z m 2.484292,-1.0533004 c 1.068078,-1.0809857 1.102324,-1.1391371 0.802178,-1.3621567 -0.172441,-0.1281307 -0.352441,-0.2139945 -0.4,-0.1908083 -0.04756,0.023186 -0.577896,0.557542 -1.178529,1.1874575 -0.98223,1.0301176 -1.062686,1.1623812 -0.8,1.3151347 0.160633,0.093408 0.32999,0.172023 0.376351,0.174699 0.04636,0.00268 0.58636,-0.5032708 1.2,-1.1243262 z M 27.44,4.3955197 c -0.777976,-0.2564007 -1.2,-0.2861953 -1.2,-0.084719 0,0.1279598 0.62488,0.2390594 1.6,0.28447 0.132,0.00615 -0.048,-0.083741 -0.4,-0.1997506 z M 31.814901,2.2897571 C 31.524456,1.939792 31.329181,2.0397897 30.288111,3.0716064 29.340153,4.0111379 29.301595,4.078665 29.553897,4.3574549 29.808928,4.6392614 29.866013,4.6062178 30.904583,3.5756057 31.738022,2.748553 31.948696,2.4509704 31.814901,2.2897571 Z M 29.97038,3.084346 C 31.01249,2.0110864 31.125133,1.76 30.564509,1.76 c -0.320695,0 -2.269617,2.0699308 -2.142531,2.2755608 0.182484,0.2952647 0.568141,0.058348 1.548402,-0.9512148 z M 30.24,1.5642911 c 0,-0.388569 -0.695228,0.00282 -1.566461,0.8818696 -0.786432,0.7934849 -0.955825,1.0475527 -0.801393,1.2019846 0.154432,0.154432 0.425379,-0.031972 1.281839,-0.8818695 C 29.751294,2.1735443 30.24,1.6326512 30.24,1.5642911 Z M 28.24,2.56 c 0.61128,-0.616 1.003418,-1.12 0.871418,-1.12 -0.132,0 -0.740138,0.504 -1.351418,1.12 -0.611279,0.616 -1.003417,1.12 -0.871417,1.12 0.132,0 0.740138,-0.504 1.351417,-1.12 z M 28.551087,1.2977531 C 28.446395,1.1930614 26.4,3.2225672 26.4,3.4310867 c 0,0.088182 0.501958,-0.3377803 1.115462,-0.946583 0.613504,-0.6088027 1.079535,-1.1428405 1.035625,-1.1867506 z"
       id="path1" />
  </g>
</svg>
