<svg id="Layer_1" data-name="Layer 1" xmlns="http://www.w3.org/2000/svg" viewBox="0 0 96 96"><path d="M20.9,43a.86.86,0,0,1-.22,0,1,1,0,0,1-.74-.71L14.29,21.51a3.72,3.72,0,0,1,7.19-2h0l5.65,20.77a1,1,0,0,1-.28,1,1,1,0,0,1-1,.22,3.79,3.79,0,0,0-2.26-.06,3.89,3.89,0,0,0-1.92,1.2A1,1,0,0,1,20.9,43Zm-3-24.21a1.86,1.86,0,0,0-.45.06A1.73,1.73,0,0,0,16.22,21l5.24,19.26a5.94,5.94,0,0,1,3.33-.91L19.55,20.08a1.67,1.67,0,0,0-.8-1A1.76,1.76,0,0,0,17.88,18.81Z"/><path d="M22.57,57.51a1,1,0,0,1-1-.74l-2.7-10a5.91,5.91,0,0,1,1.25-5.44,5.9,5.9,0,0,1,6.33-1.72,5.56,5.56,0,0,1,1.06.48,5.76,5.76,0,0,1,2.77,3.57l3.41,12.54a1,1,0,1,1-1.93.53L28.38,44.23a3.81,3.81,0,0,0-1.83-2.37,4.28,4.28,0,0,0-.73-.32,3.8,3.8,0,0,0-2.24-.06,3.91,3.91,0,0,0-2.75,4.8l2.7,10a1,1,0,0,1-.7,1.23A.78.78,0,0,1,22.57,57.51Z"/><path d="M75.1,43a1,1,0,0,1-.76-.34,3.89,3.89,0,0,0-1.92-1.2,3.79,3.79,0,0,0-2.26.06,1,1,0,0,1-1-.22,1,1,0,0,1-.28-1l5.65-20.77h0a3.74,3.74,0,0,1,4.57-2.62,3.71,3.71,0,0,1,2.62,4.57L76.06,42.29a1,1,0,0,1-.74.71A.86.86,0,0,1,75.1,43Zm-3.7-3.68a5.85,5.85,0,0,1,1.55.21,5.66,5.66,0,0,1,1.59.7L79.78,21A1.72,1.72,0,0,0,77.26,19a1.69,1.69,0,0,0-.81,1L71.21,39.34Z"/><path d="M73.43,57.51a.78.78,0,0,1-.26,0,1,1,0,0,1-.7-1.23l2.7-10a3.91,3.91,0,0,0-2.75-4.8,3.79,3.79,0,0,0-2.26.06,4.8,4.8,0,0,0-.71.32,3.81,3.81,0,0,0-1.83,2.37L64.27,56.76a1,1,0,0,1-1.93-.51l3.35-12.54a5.8,5.8,0,0,1,2.77-3.59,6,6,0,0,1,1-.46,5.89,5.89,0,0,1,6.35,1.71,5.91,5.91,0,0,1,1.25,5.44l-2.7,10A1,1,0,0,1,73.43,57.51Z"/><path d="M3,71.21a1,1,0,0,1-1-1H2V70a1,1,0,0,1,1-1,1,1,0,0,1,1,1.16v0A1,1,0,0,1,3,71.21Z"/><path d="M93,71.21a1,1,0,0,1-1-1A1,1,0,0,1,93,69a1,1,0,0,1,1,1v.2A1,1,0,0,1,93,71.21Z"/><path d="M88.71,79.19H7.29A5.29,5.29,0,0,1,2,73.91v-3.7a1,1,0,0,1,2,0,1,1,0,0,0,1,1H91a1,1,0,0,0,1-1,1,1,0,1,1,2,0v3.7A5.29,5.29,0,0,1,88.71,79.19ZM4,73.06v.85a3.28,3.28,0,0,0,3.29,3.28H88.71A3.28,3.28,0,0,0,92,73.91v-.85a3.21,3.21,0,0,1-1,.16H5A3.21,3.21,0,0,1,4,73.06Z"/><path d="M91,73.22H5a3,3,0,0,1-3-3,1.94,1.94,0,0,1,0-.34,2.91,2.91,0,0,1,1.07-1.94L15.81,57.52a9,9,0,0,1,5.66-2H74.53a9,9,0,0,1,5.66,2L92.9,67.92a2.92,2.92,0,0,1,1.08,2,1.94,1.94,0,0,1,0,.34A3,3,0,0,1,91,73.22ZM21.47,57.51a6.93,6.93,0,0,0-4.39,1.56L4.36,69.47A.94.94,0,0,0,4,70.1s0,.07,0,.1a1,1,0,0,0,1,1H91a1,1,0,0,0,1-1h1l-1,0a1,1,0,0,0-.37-.7L78.92,59.07a6.93,6.93,0,0,0-4.39-1.56Z"/><path d="M64.33,28.89a1,1,0,0,1-.7-.29,22.11,22.11,0,0,0-31.26,0,1,1,0,0,1-1.41,0,1,1,0,0,1,0-1.42,24.12,24.12,0,0,1,34.08,0,1,1,0,0,1-.71,1.71Z"/><path d="M59.88,33.34a1,1,0,0,1-.71-.29,15.81,15.81,0,0,0-22.34,0,1,1,0,0,1-1.42,0,1,1,0,0,1,0-1.41,17.83,17.83,0,0,1,25.18,0,1,1,0,0,1,0,1.41A1,1,0,0,1,59.88,33.34Z"/><path d="M55.42,37.8a1,1,0,0,1-.7-.29,9.51,9.51,0,0,0-13.44,0,1,1,0,0,1-1.41,0,1,1,0,0,1,0-1.42,11.52,11.52,0,0,1,16.26,0,1,1,0,0,1-.71,1.71Z"/><path d="M24.5,61.94H22.62a1,1,0,0,1,0-2H24.5a1,1,0,0,1,0,2Z"/><path d="M31.25,61.94H29.37a1,1,0,0,1,0-2h1.88a1,1,0,0,1,0,2Z"/><path d="M38,61.94H36.12a1,1,0,0,1,0-2H38a1,1,0,0,1,0,2Z"/></svg>